<?xml version="1.0" encoding="UTF-8" standalone="no"?>
<!DOCTYPE svg PUBLIC "-//W3C//DTD SVG 1.1//EN" "http://www.w3.org/Graphics/SVG/1.1/DTD/svg11.dtd">
<svg width="100%" height="100%" viewBox="0 0 1080 1080" version="1.1" xmlns="http://www.w3.org/2000/svg" xmlns:xlink="http://www.w3.org/1999/xlink" xml:space="preserve" xmlns:serif="http://www.serif.com/" style="fill-rule:evenodd;clip-rule:evenodd;stroke-linecap:round;stroke-linejoin:round;stroke-miterlimit:1.5;">
    <g transform="matrix(1.125,0,0,1.125,-125,-125)">
        <circle cx="600" cy="600" r="400" style="fill:white;stroke:black;stroke-width:17.55px;"/>
    </g>
    <g transform="matrix(0.375,0,0,0.375,550,550)">
        <g transform="matrix(1,0,0,1,-800,-800)">
            <g transform="matrix(3.52885,0,0,3.52885,0,0)">
                <g>
                    <path d="M382.08,60.394C355.756,55.86 328.636,59.549 302.316,62.145C276.093,64.732 248.712,67.898 222.731,61.748C192.139,54.507 172.786,34.454 158.515,7.284C154.58,17.93 150.646,28.575 146.712,39.222C120.972,108.868 95.233,178.514 69.494,248.16L0,436.203L26.838,446.122L89.379,276.895C100.986,289.278 115.316,298.27 133.712,302.624C159.691,308.77 187.075,305.61 213.296,303.022C239.614,300.421 266.737,296.735 293.061,301.27C326.887,307.096 348.743,327.356 364.384,357.141C394.061,276.85 423.732,196.558 453.405,116.265C437.761,86.479 415.911,66.222 382.08,60.394ZM385.379,203.349C372.145,192.18 357.938,184.711 340.809,181.418C335.094,196.876 329.381,212.334 323.668,227.792C340.799,231.087 355.003,238.556 368.24,249.724C363.001,263.9 357.761,278.077 352.523,292.25C339.289,281.082 325.08,273.608 307.95,270.32C313.189,256.143 318.429,241.967 323.668,227.792C306.226,224.979 289.195,224.995 271.596,226.072C266.358,240.248 261.117,254.425 255.879,268.6C237.669,270.071 219.521,272.16 201.312,273.628C206.55,259.45 211.79,245.275 217.028,231.102C199.429,232.18 182.397,232.198 164.955,229.383C159.716,243.559 154.477,257.735 149.238,271.909C132.11,268.619 117.897,261.146 104.666,249.976C109.904,235.802 115.144,221.625 120.382,207.451C133.618,218.621 147.824,226.091 164.955,229.383C170.667,213.925 176.382,198.465 182.094,183.007C164.964,179.722 150.756,172.241 137.521,161.077C143.235,145.617 148.948,130.157 154.661,114.699C167.897,125.872 182.103,133.334 199.233,136.632C204.472,122.456 209.711,108.281 214.95,94.107C232.392,96.92 249.426,96.904 267.023,95.824C261.785,109.999 256.545,124.175 251.306,138.35C269.515,136.879 287.663,134.792 305.873,133.322C311.111,119.147 316.352,104.971 321.59,90.795C339.191,89.717 356.219,89.7 373.662,92.514C368.423,106.69 363.184,120.865 357.945,135.042C375.076,138.336 389.28,145.803 402.518,156.972C396.806,172.431 391.095,187.891 385.379,203.349Z" style="fill-rule:nonzero;"/>
                    <path d="M234.167,184.726C228.454,200.185 222.741,215.643 217.027,231.102C235.237,229.63 253.386,227.542 271.595,226.072C277.308,210.615 283.021,195.156 288.734,179.698C270.523,181.169 252.376,183.257 234.167,184.726Z" style="fill-rule:nonzero;"/>
                    <path d="M234.167,184.726C239.881,169.268 245.594,153.808 251.307,138.351C233.703,139.426 216.678,139.444 199.232,136.633C193.519,152.091 187.806,167.55 182.093,183.008C199.536,185.824 216.566,185.807 234.167,184.726Z" style="fill-rule:nonzero;"/>
                    <path d="M305.873,133.323C300.16,148.781 294.447,164.239 288.734,179.698C306.335,178.623 323.363,178.605 340.807,181.418C346.519,165.96 352.233,150.501 357.945,135.043C340.503,132.229 323.474,132.243 305.873,133.323Z" style="fill-rule:nonzero;"/>
                </g>
            </g>
        </g>
    </g>
</svg>
